<svg width="32" height="32" viewBox="0 0 32 32" fill="none" xmlns="http://www.w3.org/2000/svg">
<circle cx="16" cy="16" r="16" fill="#EFEFEF"/>
<path d="M21.85 20.44C21.9446 20.5339 21.9979 20.6617 21.9979 20.795C21.9979 20.9283 21.9446 21.0561 21.85 21.15L21.15 21.85C21.0561 21.9446 20.9283 21.9979 20.795 21.9979C20.6617 21.9979 20.5339 21.9446 20.44 21.85L16 17.41L11.56 21.85C11.4661 21.9446 11.3383 21.9979 11.205 21.9979C11.0717 21.9979 10.9439 21.9446 10.85 21.85L10.15 21.15C10.0553 21.0561 10.0021 20.9283 10.0021 20.795C10.0021 20.6617 10.0553 20.5339 10.15 20.44L14.59 16L10.15 11.56C10.0553 11.4661 10.0021 11.3383 10.0021 11.205C10.0021 11.0717 10.0553 10.9439 10.15 10.85L10.85 10.15C10.9439 10.0553 11.0717 10.0021 11.205 10.0021C11.3383 10.0021 11.4661 10.0553 11.56 10.15L16 14.59L20.44 10.15C20.5339 10.0553 20.6617 10.0021 20.795 10.0021C20.9283 10.0021 21.0561 10.0553 21.15 10.15L21.85 10.85C21.9446 10.9439 21.9979 11.0717 21.9979 11.205C21.9979 11.3383 21.9446 11.4661 21.85 11.56L17.41 16L21.85 20.44Z" fill="#212121"/>
</svg>
